<svg viewBox="0 0 132.29166 132.29167" xml:space="preserve" xmlns="http://www.w3.org/2000/svg">
  <path style="display:inline;fill:#2563eb;fill-opacity:1;stroke:#fff;stroke-width:15.0186;stroke-linecap:round;stroke-linejoin:miter;stroke-dasharray:none;paint-order:stroke markers fill" d="M181.79556 392.37288c-18.08709-4.05912-35.46447-17.71521-43.57746-34.24556-9.83648-20.04196-9.26635-41.84021 1.64989-63.08206 3.07247-5.9787 7.37425-10.78519 30.6741-34.27294l27.10045-27.319 46.96287 46.95552 46.96288 46.95551-26.82229 26.66433c-29.11251 28.94105-32.72026 31.69237-48.01524 36.61708-9.62686 3.0997-25.35449 3.87722-34.9352 1.72712z" transform="scale(.26458)"/>
  <path style="display:inline;fill:#dc2626;fill-opacity:1;stroke:#fff;stroke-width:15.0186;stroke-linecap:round;stroke-linejoin:miter;stroke-dasharray:none;paint-order:stroke markers fill" d="m254.5196 270.44507-46.98289-46.92594 27.11452-26.89099c25.78571-25.57315 27.52833-27.09299 35.55857-31.01264 12.3663-6.03614 19.26866-7.62772 32.7828-7.5592 9.59124.0486 12.712.48166 19.44956 2.69884 25.12347 8.26756 41.64517 29.28424 44.67064 56.82394 1.41334 12.8651-3.68223 31.76876-11.84999 43.9613-2.6942 4.02181-14.28816 16.4671-29.11848 31.2566l-24.64185 24.57401z" transform="scale(.26458)"/>
  <path style="fill:none;stroke:#fff;stroke-width:3.31174;stroke-linecap:round;stroke-dasharray:none;paint-order:stroke markers fill;fill-opacity:1" d="m52.833825 59.751527 26.685647 26.60464m13.966423-40.935495c7.598285 7.675619 7.254815 20.341094-.767178 28.289145l-26.14758 26.147581c-7.946367 7.946362-20.549168 8.227162-28.149149.627182l-.01488-.0149c-7.59177-7.591735-7.311271-20.180919.626505-28.118695l26.303129-26.30313c7.946367-7.946365 20.549171-8.227165 28.149152-.627184Z"/>
  <path style="fill:none;stroke:#fff;stroke-width:6.7875;stroke-linecap:round;stroke-dasharray:none;paint-order:stroke markers fill" d="M121.54539 72.969788a55.568974 55.569618 0 0 1-55.503255 55.569582 55.568974 55.569618 0 0 1-55.634536-55.438146 55.568974 55.569618 0 0 1 55.371667-55.700705 55.568974 55.569618 0 0 1 55.765504 55.306397"/>
  <path style="fill:none;stroke:#fff;stroke-width:3.47218;stroke-linecap:round;stroke-linejoin:round;stroke-dasharray:none;paint-order:stroke markers fill" d="m65.822633 26.726523.0064.208802.0075-3.514479m.0063 98.823214.0064.20563.0075-3.51432m44.756637-46.108043 1.61219.000852 1.8878-.01394m-96.156503.08063 1.612193.000852 1.887803-.01394"/>
  <path style="fill:none;stroke:#fff;stroke-width:5.22906;stroke-linecap:round;stroke-linejoin:round;stroke-dasharray:none;paint-order:stroke markers fill" d="M65.896624 17.403371V4.9131576m-4.886711-.3492278 9.696472.1098626"/>
  <path style="fill:#fff;fill-opacity:1;stroke:#fff;stroke-width:6.97208;stroke-linecap:round;stroke-linejoin:miter;stroke-dasharray:none;paint-order:stroke markers fill" d="M97.744825 27.167957 114.61502 3.7487474m-2.45448 3.4514229.007.00505c7.38729 5.3437727 9.46698 15.0794657 4.64511 21.7452767l-.42954.594016-26.766237-19.361947.424969-.5874854c4.824479-6.6694171 14.727338-7.7417234 22.118648-2.3950602ZM33.892351 27.176967 17.022194 3.7577571M19.476676 7.20918l-.0071.00505c-7.387346 5.343778-9.467037 15.079471-4.645161 21.745282l.429691.594011 26.766197-19.361948-.424969-.5874848C36.770855 2.9346731 26.86802 1.8623669 19.476728 7.2090301Z"/>
</svg>
